<svg width="32" height="32" viewBox="0 0 32 32" fill="none" xmlns="http://www.w3.org/2000/svg">
<path fill-rule="evenodd" clip-rule="evenodd" d="M8.19425 26.3234C8.11039 26.2154 8.07076 26.0796 8.08342 25.9434V24.8984C8.0878 24.7643 8.13811 24.6357 8.22592 24.5342L11.9467 19.2459H8.59008C8.45792 19.2729 8.32049 19.2442 8.21008 19.1667C8.11293 19.0225 8.06822 18.8492 8.08342 18.6759V17.9159C8.0659 17.7567 8.09915 17.596 8.17842 17.4567C8.28391 17.3681 8.42181 17.3279 8.55842 17.3459H13.9892C14.143 17.3355 14.2966 17.3684 14.4326 17.4409C14.5204 17.553 14.5603 17.6953 14.5434 17.8368V18.8501C14.5602 18.9123 14.5602 18.9779 14.5434 19.0401C14.5156 19.1132 14.4783 19.1824 14.4326 19.2459L10.6642 24.5342H14.2426C14.4484 24.5342 14.5751 24.5342 14.6226 24.6451C14.7028 24.7781 14.7362 24.9342 14.7176 25.0884V25.8642C14.7362 26.0185 14.7028 26.1745 14.6226 26.3076C14.6226 26.3076 14.4484 26.4184 14.2426 26.4184H8.63758C8.48346 26.4347 8.32816 26.4014 8.19425 26.3234ZM8.08342 14.1634V6.05675C8.08342 6.05675 8.08342 5.77175 8.19425 5.67675C8.3322 5.60976 8.48431 5.57717 8.63759 5.58175H11.2501C12.1742 5.56456 13.0716 5.89192 13.7676 6.50008C14.4062 7.17327 14.7484 8.07434 14.7176 9.00175V10.9967C14.7503 11.9802 14.4489 12.9457 13.8626 13.7359C13.2508 14.3347 12.4226 14.6603 11.5668 14.6384H8.63759C8.63759 14.6384 8.30509 14.6384 8.19425 14.5434C8.11959 14.4309 8.08094 14.2984 8.08342 14.1634ZM10.1734 12.8334H11.2501C11.6113 12.8632 11.9697 12.7494 12.2476 12.5167C12.6592 12.1051 12.6117 10.9334 12.6117 10.9334V9.19175C12.6323 8.67633 12.506 8.16569 12.2476 7.71925C11.9744 7.47388 11.6171 7.34342 11.2501 7.35508H10.1734V12.8334ZM23.4259 17.3143H22.5709C22.4173 17.3062 22.2644 17.339 22.1276 17.4093C22.0532 17.5271 22.0198 17.6663 22.0326 17.8051V22.5551L19.4992 17.8051C19.4463 17.6517 19.3466 17.5188 19.2142 17.4251C19.0512 17.349 18.8712 17.3162 18.6917 17.3301H17.9001C17.7465 17.3221 17.5935 17.3548 17.4567 17.4251C17.3824 17.543 17.349 17.6821 17.3617 17.8209V25.9276C17.3461 26.0616 17.3799 26.1967 17.4567 26.3076C17.5839 26.3878 17.735 26.4214 17.8842 26.4026H18.7551C18.9092 26.4189 19.0645 26.3856 19.1984 26.3076C19.2823 26.1996 19.3219 26.0637 19.3092 25.9276V21.1776L21.8267 25.9276C21.8847 26.0869 21.9896 26.2249 22.1276 26.3234C22.2947 26.3584 22.4672 26.3584 22.6343 26.3234H23.4259C23.58 26.3397 23.7353 26.3064 23.8693 26.2284C23.9531 26.1204 23.9927 25.9846 23.9801 25.8484V17.8368C23.9894 17.696 23.9503 17.5563 23.8693 17.4409C23.7325 17.3707 23.5795 17.3379 23.4259 17.3459V17.3143ZM16.7442 14.1001L19.4359 6.00925C19.4696 5.88029 19.5414 5.76445 19.6417 5.67675C19.7552 5.60572 19.8882 5.57246 20.0217 5.58175H21.4942C21.628 5.57014 21.7617 5.60358 21.8742 5.67675C21.9599 5.77327 22.0245 5.88648 22.0642 6.00925L24.7401 14.1001C24.7946 14.2319 24.7946 14.3799 24.7401 14.5117C24.6605 14.6016 24.543 14.6486 24.4234 14.6384H23.1567C23.0187 14.6584 22.8804 14.6042 22.7926 14.4959C22.7222 14.3717 22.6689 14.2386 22.6342 14.1001L22.2067 12.7384H19.1667L18.7551 14.1001C18.7102 14.2704 18.6351 14.4313 18.5334 14.5751C18.4384 14.6542 18.1217 14.5751 18.1217 14.5751H17.0292C17.0292 14.5751 16.7917 14.5751 16.7126 14.4326C16.6906 14.321 16.7016 14.2055 16.7442 14.1001ZM19.6576 11.1076H21.7159L20.7501 7.68758L19.6576 11.1076ZM31.8334 14.1476L29.9967 16.0001L31.8334 17.8367V31.8334H0.166748V17.8367L2.00341 16.0001L0.166748 14.1634V0.166748H31.8334V14.1476ZM29.8542 2.14591H2.14591V13.2292L4.34675 15.4301C4.66453 15.756 4.66453 16.2758 4.34675 16.6017L2.14591 18.7867V29.8701H29.8542V18.7867L27.6534 16.5859C27.4927 16.4334 27.4017 16.2216 27.4017 16.0001C27.4017 15.7785 27.4927 15.5667 27.6534 15.4142L29.8542 13.2134V2.14591Z" fill="#F9FAFA"/>
</svg>
